<svg width="270" height="198" viewBox="0 0 270 198" fill="none" xmlns="http://www.w3.org/2000/svg">
<path d="M206.103 115.153C203.275 112.935 200.142 110.049 200.46 106.12C200.64 103.869 203.599 103.664 202.89 100.999C202.631 100.028 202.211 99.0755 201.631 98.1424C200.82 96.8391 199.976 95.5037 199.099 94.1362C197.057 90.9646 196.303 87.7545 198.569 84.3839C199.808 82.5413 199.789 80.2621 199.089 78.1242C197.969 74.7118 198.73 71.6108 201.57 69.2867C204.745 66.6897 209.84 66.6127 213.592 67.7298C213.645 67.7455 213.702 67.748 213.756 67.7373C213.81 67.7266 213.861 67.7029 213.905 67.6682C213.948 67.6335 213.982 67.5888 214.004 67.5381C214.026 67.4873 214.036 67.432 214.032 67.3767C213.844 64.5047 214.023 61.7825 214.568 59.2101C214.761 58.2985 215.294 57.374 215.859 56.6132C220.385 50.5139 221.996 43.0857 223.451 35.8084C224.414 30.9932 226.696 27.6579 231.758 26.3032C234.988 25.4365 238.474 27.0319 240.657 29.4106C244.458 33.5485 245.838 39.1116 248.457 44.1354C250.644 48.3279 253.34 52.3148 255.68 56.2215C258.014 60.1218 258.913 64.5807 259.115 69.2065C259.246 72.2004 258.816 75.1163 257.828 77.954C257.816 77.986 257.812 78.02 257.815 78.0538C257.818 78.0876 257.828 78.1204 257.844 78.1501C257.86 78.1798 257.883 78.2057 257.91 78.2262C257.937 78.2466 257.968 78.261 258.001 78.2686C261.622 79.1032 263.442 81.3535 262.983 85.0259C262.515 88.817 261.844 92.1299 263.487 95.7637C263.998 96.8905 264.669 97.9338 265.278 99.0156C266.922 101.93 267.324 104.952 266.485 108.081C265.391 112.183 263.327 114.668 260.556 118.01C259.747 118.986 258.704 120.347 258.242 121.535C256.829 125.162 254.659 127.746 250.695 128.667C250.535 128.705 250.388 128.787 250.273 128.905C250.157 129.022 250.078 129.171 250.043 129.332C249.001 134.226 247.621 139.338 245.902 144.667C245.888 144.713 245.885 144.761 245.893 144.809C245.902 144.856 245.922 144.901 245.952 144.938C245.982 144.976 246.021 145.005 246.065 145.024C246.109 145.043 246.156 145.05 246.204 145.045C248.213 144.869 251.09 145.495 251.087 148.108C251.072 161.4 251.065 174.298 251.067 186.803C251.067 187.159 250.936 187.352 250.666 187.567C250.405 187.77 250.439 187.873 250.769 187.875C255.768 187.935 260.854 187.955 266.026 187.936C266.677 187.934 267.604 188.047 268.806 188.276C269.127 188.338 269.239 188.525 269.14 188.838L269.089 188.995C269.045 189.135 268.956 189.256 268.835 189.339C268.714 189.423 268.569 189.465 268.421 189.457C267.259 189.403 266.091 189.246 264.929 189.242C260.47 189.233 255.979 189.255 251.433 189.111C241.724 188.8 232.179 188.789 222.799 189.075C217.085 189.249 211.609 189.563 205.927 189.557C164.865 189.527 123.802 189.524 82.7384 189.547C80.0387 189.547 76.2828 189.217 73.0888 189.217C64.1518 189.217 54.9741 189.22 45.5556 189.226C41.4434 189.23 37.3602 189.541 33.2769 189.541C29.8035 189.541 26.4789 189.538 23.3031 189.531C20.0929 189.525 16.8989 190.042 13.7819 189.756C12.2453 189.615 10.6798 189.544 9.08545 189.544C6.27767 189.542 3.39178 189.536 0.427769 189.525C0.16454 189.523 0.027575 189.391 0.0168746 189.13L0.000825461 188.783C-0.012015 188.497 0.12495 188.346 0.41172 188.331C3.24732 188.2 5.09421 188.161 5.95238 188.212C11.9339 188.569 17.0722 188.676 21.3674 188.533C22.2148 188.504 22.9467 188.283 23.775 188.276C27.7555 188.242 31.9993 188.238 36.5063 188.263C36.8572 188.265 37.0531 188.091 37.0937 187.74C37.2125 186.735 36.9107 185.753 36.6571 184.783C36.4966 184.169 36.3725 183.529 36.2848 182.864C34.5256 169.424 33.3967 155.495 32.8981 141.078C32.7344 136.352 32.9751 131.608 34.0088 126.934C36.1243 117.349 43.9216 110.765 53.369 109.16C54.041 109.046 54.6167 108.701 55.0961 108.123C56.1233 106.888 57.1644 105.684 58.2195 104.511C60.8261 101.607 63.9592 99.4736 67.6187 98.1103C71.1477 96.7942 75.1068 95.7723 79.4961 95.0447C83.6179 94.3577 88.2844 93.614 93.4955 92.8136C95.1669 92.5568 96.5151 92.2476 97.5402 91.8859C100.025 91.0031 101.916 88.5763 102.895 86.2682C104.185 83.2336 105.133 80.0545 105.739 76.731C105.763 76.5957 105.737 76.4563 105.664 76.3399C105.592 76.2235 105.479 76.1386 105.347 76.1018C102.307 75.235 100.352 72.744 99.3315 69.8132C98.2636 66.7593 97.2256 63.7717 96.2177 60.8505C95.8881 59.9003 95.6174 58.8881 95.4055 57.8137C95.1401 56.4762 94.7239 55.2157 94.1568 54.0322C93.0482 51.7188 91.9396 49.2813 90.8311 46.7196C89.5984 43.8647 88.8076 41.8723 88.4588 40.7423C87.2454 36.8132 86.8377 32.6015 87.8264 28.6145C89.2421 22.8973 94.0251 18.5637 99.5947 16.5284C99.6404 16.5116 99.6818 16.4847 99.7158 16.4498C99.7498 16.4149 99.7756 16.3728 99.7913 16.3267C99.807 16.2805 99.8121 16.2315 99.8065 16.1831C99.8008 16.1347 99.7844 16.0882 99.7584 16.0469C96.9207 11.5014 89.8777 10.9557 85.1749 10.9332C84.9159 10.9332 84.7768 10.8027 84.7575 10.5416L84.7383 10.2623C84.7147 9.93057 84.8688 9.7583 85.2005 9.74546C91.0751 9.51754 97.7489 10.6218 101.145 15.5269C101.239 15.6638 101.367 15.7473 101.527 15.7773C102.026 15.8757 102.594 15.7698 103.232 15.4595C103.313 15.4198 103.376 15.3515 103.409 15.2678C103.442 15.1842 103.443 15.0911 103.412 15.0068C102.307 12.0632 100.853 9.25752 98.5065 7.20947C97.5563 6.37805 96.4167 5.87085 95.3317 5.24488C94.9893 5.04585 94.9561 4.80509 95.2322 4.5226C95.275 4.4798 95.3263 4.4477 95.3862 4.4263C95.7928 4.28291 96.1888 4.30431 96.574 4.4905C100.487 6.37484 103.004 10.2366 104.468 14.2846C104.483 14.3267 104.509 14.3637 104.545 14.3911C104.58 14.4186 104.623 14.4353 104.667 14.4393C104.712 14.4434 104.757 14.4346 104.796 14.414C104.836 14.3934 104.869 14.3619 104.891 14.3231C109.514 6.49362 117.738 1.73942 126.688 0.481059C141.39 -1.57984 155.489 3.04916 166.214 13.0583C169.461 16.0887 171.942 19.5545 173.658 23.4559C173.836 23.8625 174.004 24.4157 174.162 25.1155C174.776 27.8377 172.175 28.8328 170.073 29.0896C170.035 29.0939 170 29.1072 169.968 29.1282C169.937 29.1493 169.912 29.1776 169.894 29.2106C169.876 29.2437 169.866 29.2806 169.865 29.3182C169.865 29.3558 169.873 29.393 169.89 29.4267C172.235 34.1563 173.164 38.8623 172.676 43.5448C172.233 47.7982 169.761 51.7466 165.566 52.8926C164.136 53.2843 162.889 53.2875 161.823 52.9023C161.789 52.8903 161.753 52.8861 161.718 52.8899C161.682 52.8938 161.648 52.9056 161.618 52.9245C161.588 52.9434 161.563 52.9689 161.544 52.999C161.526 53.0291 161.515 53.063 161.511 53.0981C160.902 58.9437 160.77 65.0333 160.118 70.6703C158.937 80.9105 153.923 91.2792 143.881 94.9676C143.865 94.9731 143.851 94.9834 143.84 94.9971C143.83 95.0108 143.824 95.0274 143.822 95.0446C143.821 95.0619 143.826 95.0791 143.834 95.0939C143.843 95.1088 143.856 95.1207 143.872 95.1281C147.891 97.0521 151.273 99.8973 154.019 103.664C156.645 107.266 159.037 110.821 161.197 114.331C161.259 114.432 161.343 114.518 161.442 114.583C161.542 114.647 161.654 114.688 161.771 114.703C163.623 114.95 165.316 115.075 166.853 115.079C172.086 115.094 177.659 115.097 183.575 115.089C184.458 115.089 185.287 115.043 186.059 114.951C187.135 114.822 188.159 115.118 189.24 115.092C193.758 114.987 198.219 115.104 202.623 115.442C203.441 115.504 204.58 115.475 206.042 115.355C206.235 115.338 206.255 115.271 206.103 115.153ZM226.677 50.3021C226.732 50.3042 226.784 50.3224 226.831 50.3566C230.012 52.7835 232.802 54.8219 236.294 56.2568C236.596 56.381 236.693 56.2879 236.586 55.9776C236.461 55.6212 236.349 55.3163 236.317 54.9246C235.838 49.1207 234.67 42.9413 232.718 37.6189C232.71 37.5964 232.707 37.5722 232.709 37.5483C232.711 37.5243 232.718 37.5012 232.731 37.4805C232.743 37.4599 232.76 37.4423 232.78 37.429C232.8 37.4157 232.823 37.4071 232.847 37.4038L232.965 37.3878C232.983 37.3851 233.001 37.3881 233.017 37.3962C233.032 37.4043 233.045 37.4171 233.052 37.4327C234.047 39.4444 234.904 42.0382 235.623 45.214C236.458 48.8971 237.014 52.2998 237.293 55.4222C237.295 55.445 237.303 55.4669 237.316 55.4859C237.329 55.5048 237.346 55.5203 237.367 55.5308C237.387 55.5413 237.41 55.5466 237.433 55.5461C237.456 55.5456 237.478 55.5395 237.498 55.5281C237.584 55.4811 237.653 55.4147 237.707 55.3291C239.63 52.257 241.569 49.2652 243.308 46.0551C244.109 44.5806 244.933 43.1788 245.78 41.8498C245.84 41.7557 245.849 41.6572 245.806 41.5545C244.753 38.8901 243.734 36.581 242.75 34.6271C240.801 30.7557 236.574 26.0208 231.656 27.7221C228.974 28.6509 227.075 30.1821 225.958 32.3158C225.406 33.373 224.929 34.9716 224.529 37.1117C223.836 40.8269 222.843 44.6137 221.55 48.4723C220.352 52.0505 218.747 55.1493 216.735 57.7688C216.301 58.3359 216.005 58.9523 215.849 59.6178C215.323 61.8799 215.137 64.3228 215.294 66.9465C215.329 67.534 215.332 68.2274 215.846 68.5644C219.457 70.9207 220.802 73.9863 222.478 77.7807C223.595 80.307 227.203 81.6713 229.486 82.8815C231.93 84.1806 233.687 85.975 234.757 88.2649C234.812 88.3865 234.915 88.4821 235.042 88.5314C236.095 88.9316 237.243 89.2055 238.487 89.3531C238.529 89.3581 238.572 89.3541 238.612 89.3416C238.653 89.3291 238.69 89.3083 238.722 89.2806C238.754 89.2528 238.78 89.2186 238.798 89.1802C238.816 89.1419 238.826 89.1002 238.827 89.0578C238.859 88.0883 238.845 87.0921 238.785 86.0692C238.503 81.0871 238.178 75.8086 237.809 70.2337C237.801 70.1039 237.751 69.9802 237.667 69.8808C237.582 69.7813 237.468 69.7115 237.341 69.6815C233.889 68.8662 230.682 68.0026 227.72 67.091C226.136 66.6009 224.774 65.8872 223.634 64.9498C223.473 64.8171 223.375 64.6492 223.338 64.4458C223.323 64.3581 223.351 64.2832 223.422 64.2211C223.482 64.1698 223.547 64.1644 223.618 64.2051C225.165 65.1403 226.47 65.7834 227.534 66.1344C230.601 67.1445 233.837 68.0112 237.244 68.7346C237.277 68.7415 237.31 68.7416 237.342 68.7347C237.374 68.7279 237.404 68.7143 237.431 68.6949C237.457 68.6754 237.479 68.6506 237.495 68.622C237.511 68.5935 237.521 68.5618 237.524 68.5291C237.584 67.8614 237.574 67.1156 237.495 66.2917C237.264 63.8391 237.041 61.4529 236.827 59.1331C236.78 58.6302 236.682 58.062 236.532 57.4285C236.506 57.3258 236.444 57.253 236.346 57.2102C232.626 55.6544 229.232 53.3923 226.163 50.4241C226.161 50.4218 226.159 50.419 226.158 50.4161C226.157 50.4132 226.157 50.4102 226.157 50.4074C226.158 50.4045 226.159 50.4019 226.16 50.3998C226.162 50.3977 226.164 50.3961 226.166 50.3952C226.316 50.3245 226.486 50.2935 226.677 50.3021ZM110.018 81.8896C110.071 81.7591 110.151 81.742 110.255 81.8383C114.669 85.8702 119.135 89.5104 124.098 92.0785C125.108 92.6007 126.028 92.8832 126.858 92.926C126.957 92.9303 127.044 92.9656 127.121 93.0319C127.695 93.5113 128.347 93.8548 129.076 94.0624C134.225 95.523 139.365 95.584 144.267 93.3915C150.427 90.634 154.269 85.6166 156.616 79.4082C157.808 76.2516 158.554 73.187 158.853 70.2144C159.095 67.8368 159.527 62.2854 160.147 53.5603C160.231 52.424 160.202 51.31 160.439 50.1576C160.521 49.766 160.542 49.3637 160.503 48.9506C160.5 48.9125 160.488 48.8757 160.467 48.8434C160.447 48.811 160.419 48.784 160.386 48.7645C160.353 48.7451 160.316 48.7337 160.278 48.7315C160.24 48.7292 160.201 48.7361 160.166 48.7516C156.703 50.2668 153.233 50.7033 150.074 48.3279C149.509 47.9041 149.149 47.3199 148.758 46.7517C148.691 46.6554 148.599 46.6094 148.482 46.6137C148.161 46.6286 147.846 46.7046 147.538 46.8416C144.454 48.1962 141.491 49.0416 138.649 49.3776C131.722 50.1993 125.471 45.8689 121.584 40.508C121.567 40.4848 121.545 40.4662 121.519 40.4538C121.493 40.4413 121.465 40.4355 121.436 40.4368C121.407 40.438 121.38 40.4464 121.355 40.4611C121.33 40.4757 121.31 40.4963 121.295 40.5208C120.334 42.1302 119.633 43.9364 119.192 45.9395C118.617 48.5526 117.951 51.1838 117.196 53.8332C116.766 55.3462 116.204 56.6667 115.51 57.7945C113.938 60.3497 111.392 60.3305 109.742 57.8555C108.4 55.8395 106.792 53.5154 103.948 54.289C100.388 55.2553 98.6606 58.138 98.7793 61.714C98.9077 65.6593 101.649 68.7185 105.517 69.444C107.039 69.7297 110.201 69.5531 111.405 68.1953C111.812 67.733 111.922 67.107 112.172 66.5517C112.206 66.475 112.258 66.4075 112.323 66.3547C112.388 66.3018 112.465 66.2652 112.547 66.2477C112.629 66.2301 112.715 66.2323 112.796 66.2539C112.878 66.2754 112.953 66.3159 113.016 66.3719C113.277 66.6073 113.383 66.9059 113.334 67.2675C113.023 69.5435 111.19 70.0764 109.257 70.6703C109.139 70.7066 109.063 70.7837 109.029 70.9014C107.88 74.9419 106.786 78.7598 105.748 82.3551C104.314 87.3179 102.163 92.2198 96.7826 93.5038C96.6584 93.5339 96.5482 93.6055 96.4705 93.7065C96.3928 93.8076 96.3523 93.9321 96.3557 94.0592C96.4006 95.508 96.6607 96.8552 97.1357 98.1007C99.2127 103.564 102.782 107.372 108.609 108.53C116.018 110.004 122.197 107.702 124.624 100.123C124.633 100.096 124.635 100.067 124.629 100.039C124.623 100.011 124.61 99.9854 124.591 99.964C124.573 99.9426 124.549 99.9265 124.522 99.9172C124.495 99.908 124.466 99.9059 124.438 99.9112C123.106 100.152 122.066 99.7411 121.067 98.9C117.684 96.0623 115.344 92.1235 113.052 88.2424C111.879 86.2543 110.869 84.2437 110.021 82.2106C109.978 82.1036 109.977 81.9966 110.018 81.8896ZM246.798 59.2069C246.83 59.4295 246.792 59.636 246.685 59.8265C245.104 62.6514 243.174 65.2901 240.894 67.7426C240.368 68.3076 239.79 68.8063 239.161 69.2385C238.859 69.444 238.724 69.734 238.756 70.1085C239.312 76.4838 239.832 82.7692 239.777 89.0353C239.777 89.0821 239.788 89.1282 239.811 89.1693C239.833 89.2103 239.866 89.2449 239.905 89.2697C239.945 89.2946 239.99 89.3088 240.037 89.311C240.084 89.3132 240.13 89.3034 240.172 89.2825L243.976 87.3789C244.179 87.2775 244.338 87.105 244.422 86.8942C245.293 84.707 246.467 82.8398 247.944 81.2925C249.366 79.8063 251.616 78.2975 253.751 78.076C254.395 78.0097 255.054 77.9979 255.728 78.0407C255.874 78.0499 256.019 78.0133 256.143 77.9361C256.267 77.859 256.363 77.7451 256.419 77.6105C257.249 75.5882 257.7 73.5294 257.773 71.4343C257.937 66.7957 257.224 61.2133 254.826 57.2712C252.943 54.1767 251.08 51.1453 249.237 48.177C248.23 46.5484 247.234 44.6833 246.252 42.5817C246.122 42.3035 245.995 42.3057 245.873 42.5882C245.203 44.1547 244.504 45.6549 243.774 47.0887C242.744 49.1133 240.768 52.196 237.845 56.3371C237.569 56.7287 237.469 57.0979 237.533 57.5666C237.94 60.5199 238.26 63.4967 238.493 66.4971C238.536 67.0364 238.535 67.5864 238.49 68.1471C238.487 68.1877 238.494 68.2285 238.51 68.2658C238.527 68.303 238.552 68.3357 238.584 68.3608C238.616 68.3859 238.654 68.4027 238.694 68.4096C238.734 68.4166 238.776 68.4135 238.814 68.4007C238.943 68.36 239.073 68.2777 239.206 68.1535C242.069 65.441 244.034 62.6032 246.445 59.0496C246.457 59.0307 246.474 59.0146 246.493 59.0023C246.513 58.99 246.534 58.9818 246.557 58.9781C246.579 58.9745 246.602 58.9756 246.624 58.9813C246.647 58.9869 246.667 58.9971 246.685 59.0111C246.75 59.0603 246.787 59.1256 246.798 59.2069ZM206.527 92.178C208.735 92.8885 211.095 93.4546 213.605 93.8762C213.642 93.8823 213.68 93.8798 213.716 93.8689C213.752 93.8579 213.785 93.8388 213.812 93.813C213.84 93.7872 213.861 93.7554 213.874 93.7202C213.887 93.6849 213.892 93.6471 213.888 93.6097C213.86 93.3401 213.788 93.0886 213.673 92.8554C212.134 89.7373 210.313 86.0863 208.209 81.9025C208.151 81.789 208.177 81.7002 208.286 81.636L208.376 81.5847C208.397 81.5725 208.423 81.5691 208.446 81.5751C208.47 81.5811 208.489 81.5961 208.501 81.6168C210.656 85.3405 212.703 89.1113 214.642 92.9292C214.663 92.9702 214.694 93.0052 214.732 93.0306C214.771 93.056 214.815 93.0711 214.861 93.0743C214.907 93.0776 214.953 93.0688 214.994 93.049C215.036 93.0292 215.072 92.999 215.098 92.9613C217.709 89.2547 219.664 85.0773 220.963 80.429C220.971 80.3967 220.989 80.3673 221.013 80.3439C221.036 80.3205 221.066 80.304 221.099 80.2961C221.131 80.2882 221.165 80.2892 221.197 80.2991C221.229 80.3089 221.258 80.3272 221.281 80.352C221.304 80.3777 221.324 80.4044 221.342 80.4322C221.449 80.6099 221.476 80.8014 221.425 81.0068C220.25 85.7064 218.307 89.8218 215.595 93.3529C215.3 93.7382 215.191 94.2004 215.393 94.653C216.733 97.6705 217.97 100.668 219.104 103.645C219.114 103.672 219.131 103.695 219.153 103.714C219.175 103.732 219.202 103.744 219.23 103.749C219.258 103.754 219.287 103.751 219.314 103.742C219.341 103.732 219.365 103.715 219.383 103.693C223.065 99.4329 225.393 94.3417 227.848 89.3339C227.859 89.3133 227.874 89.2953 227.892 89.2813C227.91 89.2672 227.931 89.2575 227.953 89.2529C227.976 89.2482 227.999 89.2488 228.021 89.2545C228.042 89.2602 228.063 89.2709 228.08 89.2857L228.157 89.3499C228.259 89.4377 228.285 89.5436 228.234 89.6677C226.362 94.255 224.603 98.059 222.012 101.824C221.351 102.783 220.572 103.635 219.676 104.38C219.607 104.437 219.557 104.515 219.534 104.601C219.51 104.688 219.514 104.78 219.544 104.864C220.73 108.201 221.833 111.591 222.854 115.034C222.859 115.053 222.868 115.07 222.881 115.085C222.894 115.099 222.91 115.11 222.928 115.118C222.946 115.125 222.966 115.128 222.985 115.126C223.004 115.124 223.023 115.118 223.04 115.108C223.66 114.751 224.204 114.306 224.67 113.776C227.794 110.235 230.246 105.651 232.031 101.337C232.04 101.315 232.055 101.297 232.073 101.283C232.092 101.269 232.113 101.26 232.136 101.257C232.159 101.255 232.182 101.258 232.202 101.268C232.223 101.277 232.24 101.292 232.253 101.311L232.311 101.391C232.396 101.515 232.415 101.648 232.368 101.789C231.386 104.706 229.979 107.671 228.147 110.684C227.21 112.227 226.096 113.586 224.805 114.761C224.14 115.367 224.25 115.588 225.136 115.426C227.169 115.053 229.194 114.963 231.209 115.156C232.123 115.242 232.487 115.745 232.301 116.665C231.798 119.149 231.176 121.703 230.436 124.324C230.419 124.386 230.418 124.45 230.434 124.512C230.45 124.574 230.482 124.631 230.526 124.676C230.571 124.722 230.626 124.755 230.688 124.773C230.749 124.791 230.814 124.792 230.876 124.777C233.659 124.103 235.932 120.372 236.387 117.75C236.809 115.321 236.652 112.926 235.915 110.566C235.077 107.88 234.409 105.356 233.912 102.993C233.561 101.326 233.554 99.7678 233.89 98.319C234.23 96.8595 234.452 95.4556 234.554 94.1073C234.683 92.453 234.326 90.6522 233.485 88.7047C233.462 88.6515 233.428 88.6041 233.385 88.5658C233.341 88.5275 233.29 88.4993 233.235 88.4832C232.135 88.1579 231.097 87.4881 230.121 86.4737C230.077 86.4278 230.051 86.3679 230.047 86.3044C230.043 86.241 230.061 86.1781 230.099 86.127L230.157 86.0499C230.165 86.0382 230.176 86.0284 230.188 86.0209C230.201 86.0134 230.215 86.0085 230.229 86.0064C230.243 86.0043 230.258 86.0051 230.272 86.0087C230.286 86.0123 230.299 86.0187 230.311 86.0275C230.985 86.5582 231.646 87.0076 232.294 87.3757C232.802 87.6646 232.876 87.579 232.516 87.1189C231.563 85.8926 230.368 84.7562 228.943 84.0404C227.55 83.3384 226.172 82.5873 224.809 81.7869C222.943 80.689 221.592 79.267 220.828 77.1868C219.961 74.8242 218.414 71.7007 216.193 70.4263C216.167 70.4121 216.139 70.4045 216.11 70.4043C216.081 70.404 216.053 70.4111 216.027 70.4249C216.002 70.4388 215.981 70.4588 215.965 70.4832C215.95 70.5076 215.941 70.5355 215.939 70.5643L215.9 71.354C215.894 71.4525 215.849 71.5263 215.766 71.5755C215.38 71.8034 215.002 71.5049 214.899 71.1325C214.674 70.2818 214.417 69.2193 213.432 68.94C208.989 67.6816 202.806 68.16 200.505 72.7729C199.886 74.0141 199.702 75.1345 199.953 76.1339C200.64 78.8785 201.49 81.6842 200.097 84.3614C199.812 84.9093 199.508 85.4561 199.185 86.0018C197.789 88.358 198.559 90.9935 199.969 93.1764C200.979 94.7451 201.947 96.2667 202.874 97.7412C203.518 98.7706 203.984 100.037 204.273 101.542C204.556 103.019 203.461 104.332 202.412 105.24C201.355 106.161 201.683 107.754 202.2 108.855C203.263 111.132 204.964 112.91 207.301 114.19C207.67 114.392 207.962 114.723 207.981 115.162C207.984 115.223 208.01 115.279 208.054 115.321C208.097 115.363 208.155 115.386 208.215 115.387C212.669 115.413 217 115.427 221.21 115.429C221.321 115.429 221.431 115.404 221.541 115.355C221.623 115.316 221.688 115.25 221.726 115.167C221.763 115.085 221.769 114.992 221.743 114.906C220.898 112.128 220.034 109.321 219.152 106.486C218.918 105.722 218.542 104.97 217.653 104.871C214.128 104.477 210.792 104.028 207.644 103.523C206.874 103.398 206.13 103.243 205.413 103.057C205.33 103.034 205.289 102.979 205.291 102.893C205.297 102.673 205.508 102.549 205.923 102.521C205.968 102.517 206.012 102.518 206.055 102.524L217.913 104.12C217.964 104.126 218.015 104.12 218.064 104.104C218.21 104.046 218.267 103.979 218.237 103.905C217.028 100.962 215.762 97.8985 214.44 94.714C214.421 94.6686 214.389 94.6295 214.349 94.6011C214.309 94.5728 214.261 94.5563 214.212 94.5535C211.582 94.3887 209.016 93.767 206.514 92.6884C206.465 92.6683 206.424 92.6342 206.394 92.5903C206.364 92.5464 206.348 92.4946 206.347 92.4413L206.344 92.3129C206.342 92.1845 206.403 92.1395 206.527 92.178ZM255.237 79.2862C251.388 79.1418 248.358 82.3808 246.512 85.5267C246.185 86.0831 246.301 86.1997 246.862 85.8766C249.088 84.584 251.273 83.3074 253.417 82.0469C254.41 81.4627 255.116 80.7019 255.536 79.7645C255.558 79.7137 255.568 79.6581 255.564 79.6025C255.56 79.547 255.543 79.4933 255.513 79.4461C255.484 79.3989 255.443 79.3596 255.395 79.3317C255.347 79.3039 255.293 79.2882 255.237 79.2862ZM258.688 115.268C256.696 117.682 254.483 119.167 252.05 119.721C251.908 119.753 251.828 119.842 251.809 119.987C251.52 122.373 251.054 124.703 250.412 126.976C250.401 127.018 250.4 127.062 250.411 127.104C250.422 127.146 250.444 127.185 250.475 127.216C250.505 127.247 250.544 127.269 250.586 127.28C250.628 127.292 250.672 127.292 250.714 127.281C252.984 126.668 255.472 124.944 256.313 122.587C257.003 120.661 257.966 118.886 259.308 117.284C260.26 116.15 261.169 115.046 262.036 113.972C265.224 110.017 266.916 104.755 264.348 100.001C263.892 99.1579 263.409 98.2987 262.9 97.4234C261.32 94.698 260.746 91.4365 261.282 88.2874C261.593 86.4448 261.988 84.0308 261.462 82.2395C260.942 80.4836 258.765 79.5623 256.948 79.6201C256.805 79.6244 256.7 79.6907 256.634 79.8191C256.047 80.9491 254.975 81.9966 253.417 82.9618C250.853 84.5497 248.325 86.0392 245.832 87.4303C245.768 87.4658 245.712 87.5134 245.667 87.5703C245.622 87.6271 245.59 87.6919 245.572 87.7609C245.209 89.1124 244.997 90.4253 244.994 91.8217C244.987 93.7285 244.856 95.6439 244.599 97.5678C244.19 100.624 242.7 102.493 240.127 103.176C239.99 103.212 239.91 103.3 239.886 103.439C239.396 106.348 239.04 109.028 238.817 111.48C238.702 112.771 238.508 114.052 238.236 115.323C237.547 118.58 237.206 121.401 237.212 123.785C237.232 130.744 237.225 137.726 237.193 144.731C237.193 144.805 237.222 144.877 237.273 144.931C237.325 144.985 237.395 145.016 237.469 145.02C239.547 145.112 241.636 145.129 243.735 145.071C244.204 145.058 244.507 144.835 244.644 144.4C246.212 139.452 247.581 134.479 248.75 129.48C248.754 129.459 248.754 129.437 248.749 129.416C248.744 129.395 248.735 129.375 248.722 129.358C248.708 129.341 248.691 129.327 248.671 129.317C248.652 129.307 248.63 129.301 248.608 129.3C246.14 129.2 242.621 128.578 241.109 126.555C239.177 123.968 238.955 121.027 239.277 117.57C239.454 115.659 239.549 113.845 239.562 112.129C239.565 111.574 239.736 111.002 240.05 110.54C240.061 110.523 240.077 110.509 240.095 110.501C240.113 110.492 240.133 110.488 240.154 110.49C240.174 110.492 240.194 110.5 240.21 110.512C240.227 110.524 240.241 110.54 240.249 110.559C240.991 112.219 240.866 114.508 240.718 116.511C240.624 117.752 240.544 118.91 240.48 119.984C240.256 123.685 242.114 127.265 246.143 127.708C247.067 127.81 248.445 127.997 249.209 127.476C249.246 127.451 249.278 127.419 249.302 127.381C249.327 127.344 249.343 127.302 249.35 127.258C249.722 125.125 250.171 122.997 250.695 120.876C250.843 120.279 250.721 119.644 250.242 119.233C247.459 116.832 244.085 114.119 242.41 110.63C242.232 110.255 242.315 110.183 242.66 110.412C242.887 110.563 243.08 110.744 243.241 110.954C245.323 113.695 247.83 116.222 250.762 118.533C250.865 118.614 250.93 118.591 250.958 118.462C251.757 114.658 252.021 110.617 252.393 106.733C252.407 106.588 252.375 106.443 252.301 106.318C252.227 106.192 252.115 106.094 251.982 106.036C250.001 105.185 248.191 103.702 247.273 101.744C247.238 101.668 247.223 101.584 247.231 101.501C247.239 101.418 247.269 101.339 247.318 101.272L247.366 101.205C247.445 101.096 247.519 101.099 247.587 101.215C248.63 102.957 250.205 104.323 252.313 105.314C252.341 105.327 252.373 105.333 252.404 105.331C252.436 105.329 252.466 105.32 252.493 105.304C252.521 105.288 252.543 105.265 252.56 105.239C252.577 105.212 252.586 105.182 252.589 105.15C252.886 100.335 253.298 95.5647 253.825 90.8394C253.84 90.696 253.917 90.6083 254.056 90.5762C254.163 90.5527 254.222 90.5944 254.232 90.7014C254.288 91.2792 254.303 91.7971 254.277 92.2551C254.136 94.7247 253.934 97.8813 253.671 101.725C253.613 102.579 253.604 103.553 253.645 104.646C253.667 105.288 253.443 105.815 253.324 106.428C253.315 106.472 253.32 106.518 253.336 106.56C253.353 106.601 253.381 106.638 253.417 106.664C253.453 106.691 253.496 106.707 253.541 106.71C253.586 106.713 253.631 106.703 253.671 106.681C256.149 105.333 258.13 103.433 260.078 101.381C260.213 101.24 260.374 101.173 260.563 101.179C260.698 101.186 260.734 101.249 260.672 101.369C259.247 104.094 256.377 106.29 253.667 107.506C253.567 107.551 253.496 107.625 253.456 107.728C253.299 108.107 253.205 108.459 253.173 108.784C252.914 111.478 252.647 114.134 252.371 116.751C252.3 117.403 252.053 117.949 251.969 118.575C251.964 118.617 251.969 118.66 251.985 118.7C252 118.74 252.026 118.775 252.059 118.802C252.092 118.829 252.132 118.847 252.174 118.855C252.216 118.862 252.26 118.859 252.3 118.844C254.576 118.032 256.386 116.694 258.223 115.191C258.336 115.097 258.464 115.057 258.608 115.069C258.76 115.082 258.786 115.149 258.688 115.268ZM239.835 101.735C239.84 101.762 239.853 101.789 239.872 101.81C239.891 101.832 239.916 101.848 239.944 101.857C240.004 101.874 240.064 101.877 240.124 101.866C240.192 101.851 240.258 101.829 240.32 101.799C242.625 100.656 243.334 98.3447 243.405 95.8023C243.466 93.4557 243.559 90.9229 243.995 88.5988C244.003 88.5574 243.999 88.5147 243.983 88.4758C243.967 88.437 243.939 88.4037 243.905 88.3801C243.87 88.3565 243.829 88.3437 243.787 88.3432C243.745 88.3427 243.703 88.3545 243.668 88.3773C242.604 89.0642 241.419 89.6313 240.111 90.0786C239.998 90.1171 239.927 90.1931 239.899 90.3065C239.773 90.8416 239.74 91.3306 239.8 91.7736C240.187 94.6777 240.191 97.5314 239.813 100.335C239.748 100.804 239.756 101.27 239.835 101.735ZM235.395 89.4494C235.377 89.4453 235.357 89.446 235.339 89.4517C235.321 89.4573 235.305 89.4676 235.292 89.4816C235.279 89.4956 235.27 89.5127 235.265 89.5313C235.261 89.5498 235.262 89.5692 235.267 89.5875C235.939 91.8495 236.057 94.1351 235.62 96.4443C235.37 97.7604 235.15 99.0102 234.962 100.194C234.885 100.677 234.911 101.154 235.039 101.622C235.069 101.731 235.134 101.812 235.235 101.863C236.132 102.336 237.134 102.56 238.243 102.534C238.295 102.532 238.344 102.513 238.384 102.481C238.424 102.448 238.452 102.404 238.464 102.354C238.646 101.573 238.752 100.763 238.782 99.9241C238.902 96.6305 238.895 93.4439 238.76 90.3643C238.758 90.3265 238.744 90.2904 238.719 90.2614C238.695 90.2324 238.662 90.2122 238.625 90.2038L235.395 89.4494ZM93.4088 94.1779C93.3588 94.1778 93.3105 94.1967 93.2732 94.2311C93.2358 94.2655 93.2121 94.3129 93.2066 94.3641C92.6031 100.929 95.4857 105.5 99.9895 109.853C101.193 111.018 102.583 111.705 104.127 112.28C106.792 113.269 109.421 113.85 112.133 113.827C114.303 113.808 116.114 113.856 118.226 113.057C125.292 110.389 127.979 102.351 128.97 95.4459C128.99 95.3175 128.935 95.2384 128.807 95.2084L127.269 94.8521C127.145 94.8243 127.074 94.8735 127.057 94.9997C126.818 96.7674 126.433 98.5961 125.905 100.486C123.905 107.648 118.12 110.758 110.968 110.171C106.066 109.769 101.887 107.956 98.9206 103.975C96.5868 100.845 95.2643 97.5871 95.0267 93.9404C95.0254 93.9202 95.0192 93.9006 95.0087 93.8833C94.9981 93.866 94.9835 93.8516 94.9662 93.8412C94.9488 93.8307 94.9292 93.8247 94.909 93.8235C94.8888 93.8224 94.8686 93.8261 94.8502 93.8345C94.3665 94.0613 93.886 94.1758 93.4088 94.1779ZM54.316 168.2C54.8018 167.787 55.3261 167.43 55.889 167.128C58.472 165.754 61.3986 164.822 64.6686 164.332C65.1245 164.263 65.1427 164.133 64.7232 163.94C61.4681 162.451 57.8664 163.195 54.6627 164.768C54.2518 164.97 53.8377 164.98 53.4204 164.801C53.3305 164.762 53.2759 164.695 53.2567 164.598C53.1711 164.2 53.3091 163.908 53.6708 163.722C56.9611 162.021 60.595 161.18 64.139 162.281C65.0057 162.552 65.881 162.859 66.7648 163.202C68.8257 164.004 71.1852 163.671 73.368 163.594C75.6729 163.51 77.9457 163.712 80.2955 163.793C81.6245 163.837 82.9834 163.919 84.3723 164.036C90.8675 164.593 97.2502 165.262 103.521 166.043C104.559 166.171 105.425 165.986 106.121 165.487C109.019 163.397 111.835 161.33 114.57 159.289C115.042 158.936 115.536 158.807 116.117 158.862C116.161 158.867 116.205 158.859 116.244 158.84C116.284 158.821 116.317 158.791 116.341 158.754C116.364 158.717 116.377 158.674 116.377 158.63C116.377 158.586 116.365 158.543 116.342 158.505C114.257 155.103 112.245 151.774 110.304 148.519C108.952 146.252 111.687 144.991 113.533 144.233C114.255 143.938 114.884 144.368 115.25 144.959C118.679 150.506 122.037 155.951 125.324 161.295C125.501 161.584 125.441 161.81 125.144 161.972L124.971 162.065C124.579 162.282 124.267 162.199 124.033 161.818L114.31 145.925C114.248 145.823 114.149 145.748 114.035 145.716C113.92 145.683 113.797 145.695 113.69 145.748L111.674 146.76C111.255 146.972 111.162 147.281 111.395 147.687C113.7 151.7 116.077 155.613 118.525 159.427C119 160.167 119.613 160.783 120.364 161.273C121.83 162.227 123.335 163.124 124.878 163.963C124.902 163.976 124.929 163.984 124.956 163.986C124.984 163.988 125.012 163.984 125.038 163.975C125.064 163.966 125.089 163.951 125.109 163.932C125.129 163.912 125.146 163.889 125.157 163.863C125.295 163.533 125.494 163.118 125.911 163.096C126.177 163.083 126.387 163.191 126.544 163.42C126.987 164.069 127.341 164.689 127.606 165.282C128.203 166.614 131.108 166.601 131.205 168.248C131.227 168.669 130.919 168.977 130.906 169.404C130.905 169.425 130.91 169.446 130.92 169.464C130.93 169.482 130.945 169.498 130.964 169.508C130.982 169.519 131.002 169.524 131.023 169.524C131.044 169.524 131.065 169.518 131.083 169.507C133.257 168.139 135.43 166.767 137.602 165.391C137.849 165.235 137.971 165.008 137.968 164.711C137.933 158.865 138.7 153.019 139.821 147.443C140.756 142.784 141.709 138.054 142.681 133.251C142.704 133.138 142.758 133.034 142.838 132.95C143.153 132.618 143.402 132.539 143.586 132.712C143.941 133.048 144.072 133.443 143.978 133.897C143.049 138.384 142.086 143.097 141.089 148.034C140.25 152.184 139.626 156.918 139.217 162.236C139.198 162.488 139.249 162.693 139.371 162.849C139.442 162.941 139.492 162.93 139.522 162.817L151.846 114.742C151.866 114.663 151.911 114.593 151.974 114.541C152.037 114.49 152.115 114.46 152.196 114.456C154.306 114.351 156.447 114.462 158.619 114.787C158.953 114.836 159.279 114.844 159.598 114.809C159.631 114.805 159.662 114.793 159.689 114.774C159.716 114.755 159.738 114.73 159.753 114.7C159.767 114.67 159.774 114.638 159.773 114.605C159.772 114.572 159.763 114.539 159.746 114.511C157.987 111.598 156.159 108.8 154.263 106.116C151.114 101.651 147.628 98.0493 142.501 96.0591C142.113 95.9114 141.5 95.783 141.098 95.8665C137.608 96.592 134.101 96.5631 130.579 95.7798C130.537 95.7709 130.494 95.7705 130.453 95.7786C130.411 95.7867 130.372 95.8032 130.337 95.827C130.302 95.8508 130.273 95.8815 130.251 95.917C130.229 95.9525 130.215 95.9921 130.21 96.0334C129.741 99.4383 128.782 102.692 127.333 105.795C124.945 110.912 121.208 114.395 115.488 114.992C110.444 115.517 105.697 114.647 101.248 112.383C98.7601 111.115 96.834 108.53 95.1808 106.319C92.6255 102.903 91.532 99.067 91.9 94.8103C91.904 94.7655 91.8976 94.7205 91.8814 94.6784C91.8653 94.6364 91.8397 94.5986 91.8067 94.5677C91.7737 94.5369 91.734 94.5138 91.6907 94.5002C91.6474 94.4866 91.6015 94.4829 91.5566 94.4893C86.6429 95.1998 81.8845 95.9777 77.2812 96.8231C70.9284 97.9883 64.5755 100.011 60.0942 104.579C58.8808 105.814 57.632 107.284 56.348 108.989C56.2859 109.071 56.2538 109.163 56.2517 109.265C56.2496 109.809 56.1094 110.264 55.8312 110.63C53.4557 113.779 51.2214 116.995 49.8892 120.385C48.2007 124.683 46.6963 129.65 45.3758 135.287C43.5589 143.057 42.0726 150.486 40.917 157.571C40.3777 160.871 39.6233 164.216 38.9748 167.539C38.0846 172.104 38.1948 176.577 39.3055 180.96C40.0053 183.723 41.4456 185.901 43.6263 187.493C44.0222 187.784 44.4995 187.929 45.058 187.929C54.8082 187.929 64.6012 187.926 74.437 187.92C77.7884 187.917 81.1141 188.257 84.5072 188.247C90.6963 188.231 97.3091 188.08 103.675 188.475C108.442 188.774 113.141 188.347 117.732 188.295C122.975 188.24 129.4 188.217 137.005 188.228C160.747 188.264 186.017 188.265 212.816 188.231C213.25 188.229 213.519 188.017 213.621 187.596L230.959 116.729C230.97 116.683 230.971 116.635 230.961 116.588C230.95 116.542 230.93 116.499 230.9 116.462C230.87 116.425 230.832 116.395 230.789 116.375C230.746 116.355 230.698 116.346 230.651 116.347C227.64 116.424 224.735 116.7 221.521 116.7C214.103 116.703 206.167 116.838 198.386 116.54C196.188 116.456 193.913 116.381 191.561 116.315C190.695 116.289 189.875 116.319 189.102 116.405C188.953 116.422 188.924 116.49 189.016 116.61C190.135 118.085 190.994 119.888 191.593 122.019C193.702 129.547 195.59 136.503 198.136 143.566C198.795 145.391 199.724 147.025 200.922 148.467C200.961 148.514 200.99 148.568 201.008 148.626C201.026 148.684 201.031 148.745 201.025 148.805C201.019 148.866 201 148.924 200.971 148.977C200.942 149.029 200.902 149.076 200.855 149.113C198.547 150.914 194.983 138.478 194.556 137.059C193.234 132.639 191.695 127.312 189.94 121.076C189.629 119.965 187.95 116.353 186.213 116.357C180.3 116.372 174.363 116.38 168.4 116.382C165.53 116.386 162.68 116.187 159.701 116.045C158.44 115.983 157.176 116.012 155.907 116.132C155.804 116.14 155.739 116.195 155.711 116.296C149.689 139.723 143.65 163.191 137.596 186.7C137.387 187.509 136.601 187.49 135.943 187.673C135.836 187.703 135.738 187.684 135.651 187.618C135.364 187.404 135.07 187.297 134.768 187.297C120.53 187.295 106.288 187.283 92.0413 187.262C91.3907 187.262 90.7615 187.254 90.1537 187.239C90.1242 187.239 90.0951 187.233 90.068 187.221C90.0409 187.209 90.0164 187.192 89.9958 187.171C89.9752 187.15 89.959 187.125 89.9481 187.098C89.9372 187.07 89.9318 187.041 89.9323 187.011L89.9611 183.67C89.962 183.608 89.9869 183.549 90.0307 183.505C90.0745 183.461 90.1336 183.436 90.1955 183.435L93.2355 183.426C93.2702 183.425 93.3043 183.416 93.335 183.4C93.3656 183.384 93.3918 183.361 93.4114 183.332C93.4309 183.304 93.4432 183.271 93.4473 183.237C93.4513 183.203 93.4469 183.169 93.4345 183.137C93.2611 182.679 93.1713 182.177 93.1648 181.631C93.0846 175.259 96.7505 170.617 102.262 167.706C102.3 167.686 102.331 167.657 102.354 167.621C102.376 167.586 102.389 167.545 102.39 167.502C102.391 167.46 102.381 167.418 102.361 167.381C102.341 167.344 102.311 167.313 102.275 167.292C102.095 167.185 101.902 167.119 101.694 167.096C90.7765 165.876 79.4127 164.576 68.1965 165.192C63.5376 165.447 59.2532 166.723 55.3432 169.022C55.2422 169.081 55.1216 169.1 55.0062 169.073C54.7023 169.005 54.4551 168.815 54.2646 168.505C54.1961 168.389 54.2133 168.288 54.316 168.2ZM237.739 110.643C237.974 108.348 238.225 106.136 238.49 104.004C238.493 103.978 238.485 103.952 238.469 103.932C238.453 103.911 238.429 103.898 238.403 103.895L235.37 103.462C235.361 103.46 235.352 103.461 235.343 103.464C235.335 103.468 235.327 103.473 235.321 103.479C235.314 103.486 235.31 103.494 235.307 103.502C235.305 103.511 235.304 103.52 235.306 103.529C235.948 106.38 236.779 108.579 237.482 111.086C237.619 111.576 237.695 111.566 237.71 111.057C237.714 110.918 237.724 110.78 237.739 110.643ZM230.965 126.237C230.67 126.356 230.452 126.337 230.147 126.366C230.023 126.379 229.946 126.446 229.916 126.568C229.192 129.558 228.488 132.451 227.804 135.248C227.739 135.509 227.745 135.782 227.82 136.067C228.547 138.838 229.213 141.641 229.816 144.474C229.847 144.62 229.924 144.753 230.036 144.851C230.149 144.95 230.29 145.009 230.439 145.02C232.029 145.144 233.742 145.147 235.578 145.029C235.671 145.024 235.758 144.982 235.822 144.914C235.885 144.846 235.92 144.756 235.919 144.663L235.861 122.841C235.861 122.584 235.789 122.563 235.646 122.777C234.503 124.494 232.985 125.432 230.965 126.237ZM227.11 138.522C227.14 138.469 227.114 138.435 227.033 138.42C227.01 138.415 226.986 138.42 226.967 138.433C226.947 138.446 226.933 138.467 226.927 138.49C226.591 140.057 226.206 141.688 225.772 143.383C225.65 143.858 225.495 144.32 225.309 144.769C225.295 144.804 225.289 144.842 225.293 144.88C225.297 144.918 225.311 144.954 225.332 144.985C225.353 145.016 225.382 145.041 225.416 145.059C225.449 145.076 225.487 145.085 225.524 145.084L228.195 145.045C228.248 145.045 228.3 145.033 228.348 145.009C228.395 144.986 228.437 144.952 228.469 144.91C228.502 144.869 228.525 144.82 228.536 144.769C228.548 144.717 228.547 144.664 228.535 144.612L227.104 138.564C227.099 138.549 227.102 138.535 227.11 138.522ZM115.787 165.131C115.82 165.111 115.86 165.104 115.898 165.11C115.937 165.116 115.972 165.134 115.998 165.163C116.945 166.216 118.111 167.041 119.353 167.719C121.617 168.953 123.778 170.186 125.834 171.417C127.317 172.305 128.194 173.453 128.463 174.861C128.795 176.592 128.991 179.104 129.051 182.395C129.061 183.046 129.392 183.391 130.043 183.432C130.233 183.445 130.455 183.46 130.707 183.477C131.319 183.516 131.579 183.231 131.487 182.623C130.937 178.996 130.318 175.309 129.629 171.564C129.218 169.34 129.16 168.107 127.426 167.057C124.156 165.076 120.911 163.142 117.69 161.257C117.172 160.951 116.652 160.612 116.13 160.242C116.066 160.198 115.99 160.174 115.912 160.174C115.835 160.174 115.759 160.198 115.697 160.242C111.776 163.022 107.97 165.849 104.278 168.723C104.186 168.796 104.082 168.835 103.967 168.839C103.288 168.873 102.758 168.999 102.375 169.218C100.243 170.442 98.3973 172.038 96.8372 174.007C95.001 176.325 93.9963 180.257 94.8148 183.185C94.8304 183.244 94.865 183.296 94.9131 183.333C94.9613 183.37 95.0204 183.39 95.0813 183.39C100.387 183.444 105.585 183.434 110.676 183.361C111.307 183.353 111.347 183.196 110.795 182.89L110.416 182.678C110.337 182.634 110.272 182.571 110.225 182.495C110.179 182.418 110.153 182.33 110.151 182.24C110.149 182.15 110.171 182.061 110.214 181.982C110.257 181.903 110.32 181.836 110.397 181.788C111.12 181.339 111.949 181.125 112.885 181.146C113.636 181.166 114.127 181.891 113.588 182.491C113.429 182.667 113.28 182.853 113.141 183.05C113.115 183.087 113.1 183.13 113.097 183.175C113.094 183.22 113.103 183.265 113.124 183.305C113.145 183.345 113.177 183.378 113.216 183.401C113.254 183.424 113.299 183.436 113.344 183.435L119.029 183.397C119.146 183.396 119.259 183.352 119.346 183.273C119.432 183.194 119.486 183.086 119.497 182.97L119.719 180.793C119.751 180.467 119.678 180.138 119.509 179.857C119.34 179.575 119.085 179.355 118.782 179.23C116.885 178.445 115.052 177.712 113.283 177.031C112.799 176.845 112.439 176.523 112.204 176.065C112.155 175.971 112.136 175.869 112.146 175.76C112.189 175.36 112.4 175.228 112.779 175.365C114.754 176.082 116.645 176.847 118.451 177.66C119.53 178.145 121.122 179.028 121.032 180.392C120.978 181.186 120.92 182.012 120.855 182.87C120.827 183.241 121 183.427 121.372 183.429L122.621 183.432C122.94 183.434 123.109 183.277 123.128 182.96C123.218 181.543 123.194 180.303 123.057 179.24C122.935 178.283 122.424 177.488 121.523 176.855C119.28 175.284 116.907 173.858 114.403 172.579C113.774 172.255 113.196 171.796 112.67 171.201C112.571 171.088 112.562 170.969 112.644 170.845C112.781 170.638 112.946 170.471 113.138 170.344C113.256 170.27 113.373 170.271 113.488 170.348C116.692 172.45 120.159 174.071 123.151 176.492C123.703 176.939 124.06 177.456 124.223 178.042C124.64 179.541 124.489 181.423 124.441 183.031C124.435 183.279 124.555 183.405 124.804 183.41L127.154 183.442C127.272 183.444 127.386 183.4 127.474 183.32C127.561 183.241 127.616 183.13 127.625 183.012C127.805 180.662 127.491 178.566 127.343 176.29C127.195 174.042 125.818 172.845 123.895 171.795C121.368 170.415 118.906 168.99 116.509 167.52C116.074 167.254 115.702 166.875 115.392 166.383C115.077 165.887 115.209 165.469 115.787 165.131ZM230.108 165.337L232.336 168.97C232.339 168.975 232.343 168.979 232.347 168.982C232.352 168.985 232.357 168.988 232.362 168.989C232.368 168.99 232.373 168.99 232.379 168.989C232.384 168.988 232.389 168.986 232.394 168.983L232.413 168.974C232.515 168.912 232.594 168.815 232.645 168.688C232.696 168.561 232.72 168.408 232.713 168.236C232.706 168.064 232.67 167.878 232.607 167.687C232.543 167.496 232.453 167.305 232.343 167.125L231.755 166.168C231.532 165.804 231.237 165.505 230.935 165.336C230.633 165.167 230.349 165.142 230.144 165.266L230.124 165.279C230.12 165.281 230.115 165.285 230.112 165.29C230.108 165.294 230.106 165.299 230.104 165.304C230.103 165.31 230.102 165.315 230.103 165.321C230.104 165.326 230.106 165.332 230.108 165.337ZM131.157 170.691C131.099 170.713 131.051 170.754 131.02 170.807C130.989 170.86 130.977 170.922 130.986 170.983L132.88 182.838C132.904 182.984 132.972 183.119 133.075 183.225C133.179 183.33 133.312 183.402 133.458 183.429C133.908 183.514 134.19 183.334 134.306 182.886C135.746 177.307 137.143 171.961 138.498 166.849C138.503 166.828 138.503 166.806 138.497 166.785C138.492 166.765 138.481 166.746 138.466 166.731C138.451 166.716 138.432 166.705 138.412 166.7C138.392 166.695 138.371 166.695 138.35 166.701C138.029 166.788 137.67 166.887 137.381 167.067C135.671 168.143 133.984 169.194 132.319 170.219C131.959 170.441 131.548 170.54 131.157 170.691ZM235.938 186.058L236.487 185.913C236.528 185.902 236.564 185.875 236.586 185.838C236.607 185.8 236.613 185.756 236.602 185.714L236.115 183.843C235.983 183.339 235.816 182.867 235.649 182.529C235.483 182.191 235.33 182.016 235.225 182.042L235.151 182.061C235.099 182.074 235.06 182.136 235.037 182.243C235.014 182.351 235.007 182.503 235.016 182.689C235.025 182.875 235.051 183.093 235.091 183.33C235.131 183.566 235.186 183.817 235.251 184.068L235.739 185.939C235.744 185.96 235.754 185.98 235.766 185.997C235.779 186.014 235.795 186.029 235.814 186.04C235.832 186.051 235.853 186.058 235.874 186.061C235.895 186.064 235.917 186.063 235.938 186.058Z" fill="black"/>
<path d="M136.203 55.0852C134.203 54.9696 132.174 54.8027 130.21 54.7289C129.929 54.7182 129.66 54.6604 129.401 54.5555C129.052 54.41 128.876 54.212 128.874 53.9617C128.872 53.7605 128.97 53.6503 129.169 53.631C130.871 53.4684 132.778 53.4887 134.89 53.692C135.521 53.7519 136.102 53.8643 136.633 54.0291C136.709 54.053 136.778 54.0946 136.835 54.1506C136.891 54.2065 136.934 54.2751 136.959 54.3508C136.983 54.4264 136.99 54.5068 136.977 54.5854C136.965 54.664 136.934 54.7385 136.887 54.8027C136.735 55.0082 136.507 55.1023 136.203 55.0852Z" fill="black"/>
<path d="M158.221 53.5636H151.782C151.457 53.5636 151.194 53.8266 151.194 54.151V54.2217C151.194 54.5461 151.457 54.8091 151.782 54.8091H158.221C158.545 54.8091 158.808 54.5461 158.808 54.2217V54.151C158.808 53.8266 158.545 53.5636 158.221 53.5636Z" fill="black"/>
<path d="M147.769 70.6638C147.85 70.5608 147.903 70.439 147.923 70.3099C147.944 70.1808 147.932 70.0485 147.888 69.9255C147.143 67.8838 146.748 65.9995 146.61 63.6978C146.548 62.6599 146.467 61.561 146.366 60.401C146.278 59.3888 146.289 57.8158 146.398 55.6822C146.434 55.0273 146.777 54.7159 147.406 54.8154C147.457 54.8245 147.504 54.851 147.537 54.8903C147.571 54.9296 147.589 54.9793 147.589 55.0305C147.572 58.4953 147.751 62.0339 148.125 65.6464C148.219 66.5559 148.56 67.8753 149.146 69.6044C149.438 70.4583 149.05 71.4727 148.302 71.9928C147.039 72.8723 145.718 72.9868 144.337 72.3363C144.271 72.305 144.212 72.2586 144.166 72.2007C144.12 72.1428 144.089 72.075 144.073 72.0025C144.058 71.9301 144.06 71.855 144.078 71.7832C144.097 71.7113 144.132 71.6446 144.18 71.5883C144.385 71.3507 144.651 71.2652 144.976 71.3315C145.942 71.5305 147.124 71.4759 147.769 70.6638Z" fill="black"/>
<path d="M104.724 67.1873C105.456 67.4335 106.244 67.5019 107.087 67.3928C107.133 67.3873 107.179 67.3943 107.221 67.4129C107.263 67.4316 107.299 67.4613 107.325 67.4989C107.351 67.5364 107.367 67.5804 107.37 67.6262C107.374 67.672 107.365 67.7178 107.344 67.7587C106.175 70.0187 103.055 67.8615 101.986 66.5517C100.416 64.6289 100.24 62.2277 100.673 59.894C101.101 57.5955 102.457 56.2301 104.741 55.7978C105.963 55.5689 107.089 55.831 108.121 56.5843C108.198 56.64 108.243 56.7149 108.256 56.809C108.301 57.1686 107.98 57.4318 107.633 57.3419C105.7 56.854 103.611 56.7994 102.487 58.626C101.007 61.0271 101.466 66.0927 104.724 67.1873Z" fill="black"/>
<path d="M107.697 61.5279C105.655 61.7494 104.834 63.1426 105.964 64.8407C106.016 64.9187 106.085 64.9835 106.165 65.0303C106.246 65.0771 106.336 65.1045 106.429 65.1104L108.22 65.2356C108.332 65.2422 108.436 65.2921 108.511 65.3747C108.587 65.4573 108.628 65.5663 108.625 65.6786C108.612 66.1119 108.185 66.4169 107.79 66.4747C106.763 66.6266 105.916 66.4265 105.251 65.8744C104.121 64.937 103.967 62.8505 104.712 61.6595C105.165 60.9319 105.941 60.4814 107.039 60.3081C107.237 60.2777 107.44 60.3189 107.61 60.4242C107.781 60.5294 107.908 60.692 107.97 60.8827L108.018 61.0367C108.114 61.3321 108.007 61.4958 107.697 61.5279Z" fill="black"/>
<path d="M150.655 62.2859C150.147 63.7627 150.811 65.3305 152.138 65.7877C153.466 66.2448 154.955 65.4182 155.463 63.9414C155.972 62.4645 155.308 60.8967 153.98 60.4396C152.652 59.9825 151.164 60.8091 150.655 62.2859Z" fill="black"/>
<path d="M131.845 63.2426C131.707 64.6756 132.622 65.9362 133.889 66.0582C135.156 66.1802 136.295 65.1174 136.433 63.6845C136.571 62.2515 135.656 60.9909 134.389 60.8689C133.122 60.7469 131.982 61.8097 131.845 63.2426Z" fill="black"/>
<path d="M140.1 80.8399C143.246 81.8286 146.026 81.5814 148.517 79.36C148.579 79.304 148.654 79.2649 148.735 79.2463C148.815 79.2278 148.9 79.2304 148.979 79.2541C149.349 79.3611 149.508 79.6457 149.454 80.108C149.44 80.2432 149.381 80.3696 149.287 80.4675C145.971 84.005 137.882 83.1929 135.497 78.8913C135.293 78.5254 135.344 78.2001 135.648 77.9154C135.755 77.8149 135.891 77.7646 136.058 77.7646C136.128 77.7636 136.197 77.7794 136.259 77.8107C136.322 77.8419 136.376 77.8878 136.418 77.9443C137.522 79.4488 138.75 80.414 140.1 80.8399Z" fill="black"/>
<path d="M184.721 154.994L186.143 149.78C186.305 149.183 186.655 148.653 187.141 148.27C187.627 147.886 188.223 147.668 188.842 147.649L191.757 147.562C192.209 147.548 192.658 147.641 193.067 147.832C193.477 148.022 193.836 148.307 194.116 148.662C194.396 149.017 194.589 149.432 194.68 149.875C194.77 150.318 194.755 150.776 194.637 151.212L193.215 156.435C193.051 157.034 192.699 157.565 192.211 157.949C191.722 158.333 191.123 158.55 190.502 158.566L187.59 158.647C187.139 158.659 186.691 158.566 186.282 158.374C185.873 158.182 185.515 157.897 185.236 157.542C184.957 157.187 184.765 156.772 184.676 156.329C184.586 155.887 184.602 155.429 184.721 154.994ZM186.059 153.636C185.619 155.257 185.167 157.231 187.484 157.565C188.126 157.657 188.871 157.684 189.719 157.645C191.154 157.581 192.02 157.016 192.396 155.616C192.785 154.17 193.18 152.636 193.58 151.016C193.938 149.557 193.448 148.776 192.11 148.673C191.348 148.615 190.5 148.587 189.565 148.589C188.335 148.593 187.517 149.052 187.112 150.214C186.723 151.344 186.372 152.484 186.059 153.636Z" fill="black"/>
<path d="M82.0867 157.019C81.9498 154.466 81.8941 152.008 81.9198 149.646C81.9241 149.374 82.0621 149.234 82.3339 149.225L82.565 149.215C82.886 149.205 83.0583 149.361 83.0819 149.684C83.3815 153.68 83.5259 157.726 83.5152 161.825C83.5131 162.308 83.2745 162.506 82.7994 162.419L82.671 162.396C82.168 162.304 81.939 162.003 81.984 161.494C82.1252 159.889 82.1595 158.397 82.0867 157.019Z" fill="black"/>
<path d="M196.039 153.713C195.697 153.788 195.481 153.656 195.391 153.318L195.362 153.206C195.247 152.773 195.405 152.502 195.837 152.39C198.367 151.732 201.439 153.523 203.41 154.949C206.999 157.552 210.957 160.329 215.181 161.395C216.376 161.696 217.663 161.981 219.043 162.249C219.356 162.308 219.471 162.492 219.39 162.801L219.361 162.9C219.267 163.26 219.035 163.419 218.664 163.378C214.724 162.94 211.172 161.68 208.007 159.6C206.031 158.303 204.01 156.942 201.943 155.517C200.2 154.316 198.161 153.238 196.039 153.713Z" fill="black"/>
<path d="M83.2327 177.635C84.9855 178.354 86.7671 177.269 87.9869 175.911C90.0692 173.587 92.1579 171.364 94.2531 169.243C94.3934 169.101 94.573 169.004 94.7686 168.964C94.9643 168.925 95.1671 168.945 95.3509 169.022L95.4793 169.076C95.8645 169.237 95.9105 169.467 95.6174 169.767C94.2563 171.163 92.847 172.521 91.6304 173.994C89.7814 176.225 87.9741 178.456 85.0529 179.175C84.0353 179.426 83.0176 179.14 82.809 177.975C82.7989 177.92 82.8037 177.864 82.823 177.813C82.8423 177.761 82.8754 177.715 82.9187 177.68C82.9621 177.645 83.0141 177.623 83.0693 177.615C83.1246 177.607 83.181 177.614 83.2327 177.635Z" fill="black"/>
<path d="M199.355 196.645C196.013 196.585 192.59 196.593 189.086 196.671C188.181 196.69 187.324 196.95 186.428 196.95C178.478 196.958 170.04 196.956 161.113 196.943C159.5 196.939 158.05 196.985 156.764 197.081C152.841 197.367 149.14 197.332 145.015 197.11C143.05 197.005 140.996 196.953 138.851 196.953C129.086 196.951 119.467 196.952 109.995 196.956C107.883 196.956 105.813 197.242 103.71 197.255C98.4819 197.283 93.4142 197.285 88.507 197.261C85.4156 197.245 82.1541 197.601 78.9215 197.595C74.8511 197.589 70.7743 197.682 66.7327 197.496C64.6012 197.399 62.4793 197.242 60.3446 197.264C56.2356 197.309 52.0967 197.245 47.9279 197.072C45.8092 196.982 43.6937 196.939 41.5815 196.943C29.6933 196.961 18.1369 196.962 6.9122 196.947C4.86415 196.943 2.7551 197.088 0.880395 197.046C0.735966 197.042 0.595327 196.995 0.47592 196.911C0.137787 196.674 0.032925 196.467 0.16133 196.292C0.463081 195.881 0.871835 195.675 1.38759 195.675C15.0606 195.65 29.0834 195.645 43.4562 195.663C45.485 195.665 47.4453 195.702 49.3371 195.775C51.9534 195.874 54.5696 196.032 57.1666 195.99C61.2627 195.923 65.3363 196.308 69.4292 196.311C74.7901 196.317 79.6545 196.304 84.0224 196.269C84.7993 196.266 85.6981 196.003 86.5648 196C92.0135 195.978 97.5274 195.979 103.107 196.003C105.501 196.012 107.816 195.663 110.191 195.659C120.609 195.646 130.39 195.648 139.535 195.663C142.906 195.669 146.196 195.903 149.528 195.99C153.836 196.102 158.77 195.65 163.47 195.656C179.096 195.678 194.237 195.671 208.893 195.637C213.291 195.627 217.599 195.971 221.99 195.98C228.173 195.993 234.282 196.141 240.384 195.807C243.084 195.663 245.645 195.685 248.342 195.569C253.831 195.336 259.176 195.266 264.376 195.358C265.872 195.383 267.41 195.258 268.883 195.281C269.2 195.285 269.401 195.44 269.487 195.746C269.51 195.825 269.503 195.899 269.464 195.968C269.246 196.348 268.932 196.542 268.521 196.549C264.362 196.617 260.147 196.643 255.873 196.626C254.141 196.619 252.306 196.679 250.367 196.805C247.95 196.966 245.411 196.87 243 197.001C236.098 197.374 231.171 197.296 222.619 197.264C220.894 197.258 218.756 197.206 216.205 197.107C211.583 196.925 207.052 196.874 202.614 196.953C201.497 196.972 200.463 196.664 199.355 196.645Z" fill="black"/>
</svg>
